# xmcd
# 
# Track frame offsets:
#     182
#     17900
#     34017
#     56215
#     82457
#     101015
#     104182
# 
# Disc length: 1459
# 
# Revision: 1
# Processed by: cddbd v1.5.2PL0 Copyright (c) Steve Scherf et al.
# Submitted via: fre:ac v1.1beta1pre5
# 
DISCID=6505b107
DTITLE=Pinay - Is It Real
DYEAR=1997
DGENRE=R&B
TTITLE0=Is It Real (Radio Edit)
TTITLE1=Is It Real (Top Down Edit)
TTITLE2=Is It Real (Extended Mix)
TTITLE3=Is It Real (Top Down Mix)
TTITLE4=Dim The Lights (special bonus track)
TTITLE5=Why Do Fools (exerpt)
TTITLE6=Inevitable (exerpt)
EXTD=
EXTT0=
EXTT1=
EXTT2=
EXTT3=
EXTT4=
EXTT5=
EXTT6=
PLAYORDER=
